<?xml version="1.0" encoding="UTF-8" standalone="no"?>
<svg
   xmlns:dc="http://purl.org/dc/elements/1.1/"
   xmlns:cc="http://creativecommons.org/ns#"
   xmlns:rdf="http://www.w3.org/1999/02/22-rdf-syntax-ns#"
   xmlns:svg="http://www.w3.org/2000/svg"
   xmlns="http://www.w3.org/2000/svg"
   xmlns:sodipodi="http://sodipodi.sourceforge.net/DTD/sodipodi-0.dtd"
   xmlns:inkscape="http://www.inkscape.org/namespaces/inkscape"
   width="158mm"
   height="124mm"
   viewBox="0 0 158 124"
   version="1.1"
   id="svg8"
   inkscape:version="1.0.1 (1.0.1+r73)"
   sodipodi:docname="home-solid.svg">
  <defs
     id="defs2" />
  <sodipodi:namedview
     id="base"
     pagecolor="#ffffff"
     bordercolor="#666666"
     borderopacity="1.0"
     inkscape:pageopacity="0.0"
     inkscape:pageshadow="2"
     inkscape:zoom="1.4"
     inkscape:cx="370.365"
     inkscape:cy="278.05331"
     inkscape:document-units="mm"
     inkscape:current-layer="layer1"
     inkscape:document-rotation="0"
     showgrid="false"
     inkscape:window-width="1920"
     inkscape:window-height="1052"
     inkscape:window-x="1366"
     inkscape:window-y="0"
     inkscape:window-maximized="1" />
  <metadata
     id="metadata5">
    <rdf:RDF>
      <cc:Work
         rdf:about="">
        <dc:format>image/svg+xml</dc:format>
        <dc:type
           rdf:resource="http://purl.org/dc/dcmitype/StillImage" />
        <dc:title></dc:title>
      </cc:Work>
    </rdf:RDF>
  </metadata>
  <g
     inkscape:label="Layer 1"
     inkscape:groupmode="layer"
     id="layer1">
    <path
       fill="currentColor"
       d="m 77.165247,34.148957 -48.78123,40.17698 v 43.362573 a 4.2333333,4.2333333 0 0 0 4.233333,4.23333 l 29.649209,-0.0767 a 4.2333333,4.2333333 0 0 0 4.212166,-4.23333 V 92.288497 a 4.2333333,4.2333333 0 0 1 4.233334,-4.23333 h 16.933338 a 4.2333333,4.2333333 0 0 1 4.23333,4.23333 v 25.304763 a 4.2333333,4.2333333 0 0 0 4.23333,4.24656 l 29.638623,0.082 a 4.2333333,4.2333333 0 0 0 4.23333,-4.23333 V 74.296817 L 81.213377,34.148937 a 3.2252708,3.2252708 0 0 0 -4.04813,0 z m 77.054593,27.30765 -22.11916,-18.23244 V 6.5767308 a 3.175,3.175 0 0 0 -3.175,-3.175 h -14.81667 a 3.175,3.175 0 0 0 -3.175,3.175 V 25.788131 L 87.245877,6.2989208 a 12.7,12.7 0 0 0 -16.139589,0 L 4.1323083,61.456607 a 3.175,3.175 0 0 0 -0.423333,4.47146 l 6.7468747,8.20208 a 3.175,3.175 0 0 0 4.474104,0.43127 L 77.165247,23.301041 a 3.2252708,3.2252708 0 0 1 4.04813,0 L 143.4513,74.561417 a 3.175,3.175 0 0 0 4.47146,-0.42333 l 6.74687,-8.20209 a 3.175,3.175 0 0 0 -0.44979,-4.47939 z"
       id="path1698"
       style="fill:#ffffff;stroke-width:0.264583" />
  </g>
</svg>
